PathFileType	4	(X/Y/Z)	C:/Users/beibeiliu/ov580/test_trc\sequence.5_training_dense_right.trc
DataRate	CameraRate	NumFrames	NumMarkers	Units	OrigDataRate	OrigDataStartFrame	OrigNumFrames
120	120	10	19	mm	120	34	100
Frame#	Time	ThumbCMC			ThumbMCP			ThumbIP			ThumbTip			IndexMCP			IndexPIP			IndexTip			MiddleMCP			MiddlePIP			MiddleTip			RingMCP			RingPIP			RingTip			PinkyMCP			PinkyPIP			PinkyTip			BackHand1			BackHand2			BackHand3	
		X0	Y0	Z0	X1	Y1	Z1	X2	Y2	Z2	X3	Y3	Z3	X4	Y4	Z4	X5	Y5	Z5	X6	Y6	Z6	X7	Y7	Z7	X8	Y8	Z8	X9	Y9	Z9	X10	Y10	Z10	X11	Y11	Z11	X12	Y12	Z12	X13	Y13	Z13	X14	Y14	Z14	X15	Y15	Z15	X16	Y16	Z16	X17	Y17	Z17	X18	Y18	Z18	
33	0.275	76.6065	104.389	72.2367	49.7543	98.1729	54.1017	37.5347	86.4525	35.7188	30.9591	67.4748	17.5021	86.683	97.5367	4.81197	74.7383	90.5225	-14.0474	56.7204	79.0902	-26.6505	80.501	69.0846	11.951	49.733	63.2007	15.4852	48.8567	68.1358	46.739	73.9174	52.6774	21.9775	53.1856	53.696	37.3472	60.6208	61.2075	61.6073	79.943	42.1845	33.4556	60.2337	45.6248	47.1182	68.8708	61.7458	70.3862	115.967	68.0231	53.8793	117.845	72.7926	78.2128	107.815	97.0642	65.3783	
34	0.283333	82.7063	105.123	69.0457	54.5623	103.241	49.5993	44.8291	92.1112	36.0888	32.0585	75.5968	17.2933	91.3291	92.39	6.43002	74.0613	92.2495	-17.0766	56.145	84.8837	-26.2859	76.6285	74.6529	8.70635	50.2213	68.8684	15.4759	53.3461	74.111	49.3886	74.0857	57.4619	22.0821	53.07	58.6458	35.9016	62.5217	71.2378	62.8267	77.0113	44.46	34.3403	58.4815	50.6593	48.3504	67.6178	66.3892	66.5572	113.686	62.8603	55.7603	117.719	69.8837	81.4783	112.113	93.2459	61.6136	
35	0.291667	88.8648	108.46	73.3175	60.0138	109.514	49.8423	45.4072	102.784	35.1648	36.8029	85.3624	21.8801	84.1896	98.8861	4.54965	66.4248	92.8688	-7.25467	43.3113	93.3881	-15.5294	72.3813	75.9811	9.70616	45.8765	75.1007	21.3287	53.1915	77.6946	52.9069	70.8298	58.2881	24.5016	49.2128	69.3599	40.8179	63.2521	74.1302	66.3988	69.9233	49.1662	34.5179	55.4956	57.0233	46.8526	67.7296	69.6462	67.6194	113.79	65.7771	53.1355	119.677	68.48	82.1162	116.183	89.9341	61.7379	
36	0.3	92.8131	109.8	69.3865	66.5556	113.674	53.5747	49.9716	106.553	31.2429	37.7001	93.9439	20.4202	83.55	94.8624	6.82224	63.0955	97.7287	-5.13389	40.8401	93.7815	-9.60914	71.6499	80.6632	11.2027	46.1535	80.1708	22.2517	54.491	88.368	54.7894	68.6483	62.5045	25.0538	48.4131	73.1961	42.951	63.8317	79.7658	64.5655	69.7635	48.0857	37.0501	51.4777	62.8411	52.8528	63.4408	74.7172	66.4011	110.04	63.7603	53.7689	119.019	67.7178	76.288	117.746	89.3266	63.8669	
37	0.308333	96.222	107.76	72.4483	70.3664	115.93	51.184	53.7714	107.923	28.6791	41.1824	94.3369	17.785	90.1647	90.129	7.72136	72.2992	88.2379	-8.09795	49.7461	93.1555	-19.7006	74.9048	74.7883	10.8588	48.0435	78.2576	21.7184	57.0493	86.4136	52.8177	69.7943	59.8908	24.3526	49.4729	74.6445	41.3292	62.811	82.7806	61.3298	66.6703	47.2261	37.7846	51.9579	63.9884	51.0778	67.9709	76.5404	66.3843	111.724	58.4482	56.287	118.678	60.5505	78.5354	118.548	85.0002	59.2684	
38	0.316667	101.554	104.885	70.3786	77.4909	112.141	47.2855	61.5709	104.953	25.6991	47.2814	94.3661	16.1397	100.042	79.625	3.17612	87.2724	79.48	-16.2252	66.87	79.874	-30.539	80.2866	65.516	11.5402	54.0274	77.9753	16.0095	60.0946	89.3425	47.8922	69.8347	58.3732	23.2584	51.5835	70.1711	35.7818	64.9792	82.1905	58.7868	69.6761	44.1446	38.0961	52.9766	59.1465	46.9603	67.2178	73.8212	62.7534	110.13	52.9646	58.7756	117.766	58.3797	80.7089	122.704	76.9705	61.5812	
39	0.325	106.397	102.434	67.9961	83.4553	104.673	41.5213	69.4421	97.608	24.5513	53.9611	90.5755	14.0336	108.624	73.9068	8.22895	98.2724	71.732	-15.4	79.3048	73.1282	-33.7943	83.9557	62.6148	8.48565	56.5632	74.1906	15.986	63.8449	83.7086	46.1416	69.697	51.1691	23.9306	55.1924	70.0076	35.0181	69.2671	78.8452	58.4774	70.3899	42.7534	36.8323	54.7552	60.1992	46.9287	71.9548	70.2649	64.5	109.241	43.0714	60.3223	115.516	49.8664	86.7294	125.417	70.2749	62.4375	
40	0.333333	111.974	93.3261	66.2294	90.3887	99.8653	44.3944	75.8577	96.8285	25.1639	61.468	86.9867	11.5615	109.391	66.2827	7.73762	93.9445	65.0331	-12.3988	72.5199	71.2575	-29.9031	84.2796	53.0734	12.4294	61.3384	70.3433	13.0957	65.6818	82.3532	45.0849	71.8352	44.9507	28.3001	56.8518	67.6589	35.4404	67.9935	75.35	59.4224	65.0297	36.5446	40.7526	54.3448	58.493	49.0445	71.081	67.2447	66.0366	108.215	38.1349	61.2961	116.134	42.1076	87.5142	123.388	59.5104	66.109	
41	0.341667	114.308	88.501	68.1201	95.4961	100.55	45.5422	80.9109	93.5514	24.613	64.0367	88.0423	8.77574	106.812	65.4542	7.2665	88.9447	68.0776	-10.9138	71.8047	77.1394	-23.6641	82.1083	54.9654	10.6613	59.123	70.9074	16.3535	67.6651	81.0882	47.3958	67.1376	47.7048	27.443	57.0833	69.4187	34.0882	72.2477	74.9627	61.4071	63.2049	36.7241	43.2373	56.6417	63.3183	47.9953	70.0819	68.5264	65.3767	105.771	34.0354	65.0058	111.125	40.2942	86.2778	125.093	58.0939	66.6437	
42	0.35	114.767	85.4452	65.7968	96.996	97.8099	44.0415	81.7383	94.7594	21.372	64.3688	88.8162	5.9138	101.803	57.964	5.80777	89.2296	61.1679	-9.95376	72.8187	69.389	-25.7813	78.0755	51.6313	11.7753	58.7569	70.0055	13.5522	67.5062	84.4019	43.9665	68.5889	49.7242	27.388	56.6252	72.7129	35.1518	71.8025	80.1672	55.4317	58.5798	39.083	43.6213	51.1312	63.3337	46.4894	71.2501	71.9966	64.1181	101.82	33.8253	65.7939	107.455	38.8497	87.3018	121.964	54.3953	63.5792	
